<svg xmlns="http://www.w3.org/2000/svg" width="1900" height="2520" viewBox="0 0 1900 2520">
  <defs>
    <style>
      .bg{fill:#07111f}
      .title{font-family:Segoe UI,Arial,sans-serif;font-size:32px;font-weight:700;fill:#edf6ff}
      .subtitle{font-family:Segoe UI,Arial,sans-serif;font-size:15px;fill:#a9bdd8}
      .section{font-family:Segoe UI,Arial,sans-serif;font-size:21px;font-weight:700;fill:#f2f8ff}
      .h{font-family:Segoe UI,Arial,sans-serif;font-size:17px;font-weight:700;fill:#f8fbff}
      .t{font-family:Segoe UI,Arial,sans-serif;font-size:13px;fill:#d5e3f5}
      .small{font-family:Consolas,Menlo,monospace;font-size:12px;fill:#d7e7f8}
      .tiny{font-family:Segoe UI,Arial,sans-serif;font-size:11px;fill:#b7c7da}
      .panel{fill:#101827;stroke:#334155;stroke-width:1.6;rx:12}
      .input{fill:#172554;stroke:#60a5fa;stroke-width:1.6;rx:10}
      .recipe{fill:#0f2f2e;stroke:#2dd4bf;stroke-width:1.6;rx:10}
      .calc{fill:#0e3a48;stroke:#22d3ee;stroke-width:1.6;rx:10}
      .stage{fill:#1e293b;stroke:#94a3b8;stroke-width:1.6;rx:10}
      .scanner{fill:#2d1f10;stroke:#f59e0b;stroke-width:1.6;rx:10}
      .review{fill:#3b1632;stroke:#f472b6;stroke-width:1.6;rx:10}
      .script{fill:#18203d;stroke:#818cf8;stroke-width:1.6;rx:10}
      .monitor{fill:#2d1233;stroke:#c084fc;stroke-width:1.6;rx:10}
      .warn{fill:#3a1d08;stroke:#fb923c;stroke-width:1.6;rx:10}
      .board{fill:#08111f;stroke:#64748b;stroke-width:2}
      .cell{fill:#0e7490;stroke:#67e8f9;stroke-width:1;opacity:.86}
      .cell2{fill:#f59e0b;stroke:#fde68a;stroke-width:2}
      .band{fill:#0891b255;stroke:#22d3ee;stroke-width:2;stroke-dasharray:8 5}
      .ak{fill:#facc15;stroke:#854d0e;stroke-width:1.4}
      .headOdd{fill:#1d4ed8;stroke:#7dd3fc;stroke-width:2}
      .headEven{fill:#1e40af;stroke:#7dd3fc;stroke-width:2;stroke-dasharray:5 4}
      .arrow{stroke:#93a4b8;stroke-width:2.2;fill:none;marker-end:url(#arrow)}
      .arrowC{stroke:#22d3ee;stroke-width:2.5;fill:none;marker-end:url(#arrowC)}
      .arrowO{stroke:#f59e0b;stroke-width:2.2;fill:none;marker-end:url(#arrowO)}
      .arrowP{stroke:#c084fc;stroke-width:2.2;fill:none;marker-end:url(#arrowP)}
      .dash{stroke:#f59e0b;stroke-width:2;fill:none;stroke-dasharray:7 5;marker-end:url(#arrowO)}
      .badge{fill:#082f49;stroke:#22d3ee;stroke-width:1.2;rx:6}
      .soft{fill:#0f172a;stroke:#334155;stroke-width:1.2;rx:8}
    </style>
    <marker id="arrow" markerWidth="12" markerHeight="12" refX="10" refY="6" orient="auto">
      <path d="M0,0 L12,6 L0,12 Z" fill="#93a4b8"/>
    </marker>
    <marker id="arrowC" markerWidth="12" markerHeight="12" refX="10" refY="6" orient="auto">
      <path d="M0,0 L12,6 L0,12 Z" fill="#22d3ee"/>
    </marker>
    <marker id="arrowO" markerWidth="12" markerHeight="12" refX="10" refY="6" orient="auto">
      <path d="M0,0 L12,6 L0,12 Z" fill="#f59e0b"/>
    </marker>
    <marker id="arrowP" markerWidth="12" markerHeight="12" refX="10" refY="6" orient="auto">
      <path d="M0,0 L12,6 L0,12 Z" fill="#c084fc"/>
    </marker>
  </defs>

  <rect width="1900" height="2520" class="bg"/>
  <text x="42" y="52" class="title">MOF_COORDINATE_WPF_SAMPLE 최신 기준 좌표계 변환 과정</text>
  <text x="44" y="82" class="subtitle">PPID Recipe Cell 정의, Review AK1 측정, H1 실측 Scanner Origin, Zigzag Head 배치, DOE Review 기준, Automation1 Task/AeroScript 생성까지의 실제 코드 흐름</text>

  <rect x="36" y="112" width="1828" height="190" class="panel"/>
  <text x="60" y="146" class="section">0. 최신 코드 기준 전체 입력 묶음</text>
  <text x="60" y="172" class="subtitle">CoordinateInput 안에 Recipe, Review, Scanner, DOE, Offset, Automation1 Script 조건이 모이고 CoordinateTransformService.Generate()가 CoordinateResult를 만든다.</text>

  <rect x="62" y="198" width="330" height="76" class="recipe"/>
  <text x="82" y="222" class="h">PPID Process Program</text>
  <text x="82" y="244" class="tiny">ONLINE_PPID_NAME, STAGE_SPEED, LASER_POWER</text>
  <text x="82" y="262" class="tiny">MAX_CELL_NUMBER, NUM_OF_PIXEL, PITCH, CHESS, Cell list</text>

  <rect x="424" y="198" width="330" height="76" class="input"/>
  <text x="444" y="222" class="h">Review AK1 Measurement</text>
  <text x="444" y="244" class="tiny">ReviewCenterGlobalX/Y, ReviewPixelCenterU/V</text>
  <text x="444" y="262" class="tiny">MeasuredAk1U/V, PixelScaleX/Y, ThetaAlignDeg</text>

  <rect x="786" y="198" width="330" height="76" class="scanner"/>
  <text x="806" y="222" class="h">Scanner Geometry</text>
  <text x="806" y="244" class="tiny">FirstScannerInitialStageX/Y, ScannerPitchX</text>
  <text x="806" y="262" class="tiny">EvenScannerYOffset, FieldHalfX/Y, OriginTolerance</text>

  <rect x="1148" y="198" width="330" height="76" class="review"/>
  <text x="1168" y="222" class="h">DOE / Review Basis</text>
  <text x="1168" y="244" class="tiny">ReviewBasisScannerHead, ReviewBasisDoeBeam</text>
  <text x="1168" y="262" class="tiny">DOE 4 x 4, DoeBeamPitchX/Y</text>

  <rect x="1510" y="198" width="330" height="76" class="script"/>
  <text x="1530" y="222" class="h">Automation1 Options</text>
  <text x="1530" y="244" class="tiny">AxisXTemplate=GX{0}, AxisYTemplate=GY{0}</text>
  <text x="1530" y="262" class="tiny">Task=head, Encoder=16000 cts/mm, Mode split</text>

  <rect x="36" y="330" width="1828" height="312" class="panel"/>
  <text x="60" y="364" class="section">1. Review Pixel에서 AK1 Stage Anchor 생성</text>
  <text x="60" y="390" class="subtitle">리뷰카메라 영상에서 측정된 AK1 pixel 편차를 실제 Stage mm 좌표로 바꾼다. 이 점이 이후 모든 Cell 좌표의 기준점이다.</text>

  <rect x="64" y="420" width="420" height="146" class="calc"/>
  <text x="86" y="449" class="h">1-1. Pixel 편차 계산</text>
  <text x="86" y="478" class="small">deltaPixelU = MeasuredAk1U - ReviewPixelCenterU</text>
  <text x="86" y="501" class="small">deltaPixelV = MeasuredAk1V - ReviewPixelCenterV</text>
  <text x="86" y="530" class="tiny">영상 중심 대비 AK1이 몇 pixel 이동했는지 계산한다.</text>

  <rect x="548" y="420" width="475" height="146" class="calc"/>
  <text x="570" y="449" class="h">1-2. Pixel scale 적용</text>
  <text x="570" y="478" class="small">ak1GlobalX = ReviewCenterGlobalX + deltaPixelU * PixelScaleX</text>
  <text x="570" y="501" class="small">ak1GlobalY = ReviewCenterGlobalY + deltaPixelV * PixelScaleY</text>
  <text x="570" y="530" class="tiny">Review optical center에서 본 AK1 위치를 Stage Global 좌표로 환산한다.</text>

  <rect x="1088" y="420" width="350" height="146" class="stage"/>
  <text x="1110" y="449" class="h">1-3. AK1 Stage Anchor</text>
  <text x="1110" y="478" class="small">AK1 = (Ak1GlobalX, Ak1GlobalY)</text>
  <text x="1110" y="501" class="small">Board local origin 기준점</text>
  <text x="1110" y="530" class="tiny">이후 Local 좌표에 R(theta)를 적용해 Stage 좌표를 만든다.</text>

  <rect x="1502" y="420" width="320" height="146" class="warn"/>
  <text x="1524" y="449" class="h">주의</text>
  <text x="1524" y="478" class="t">ReviewCenterGlobal은 카메라 중심의 Stage 좌표</text>
  <text x="1524" y="502" class="t">AK1은 측정된 기판 기준점</text>
  <text x="1524" y="526" class="t">ProcessOffset은 아직 적용하지 않는다.</text>

  <path class="arrowC" d="M484 493 H548"/>
  <path class="arrowC" d="M1023 493 H1088"/>
  <path class="arrow" d="M1438 493 H1502"/>

  <rect x="36" y="676" width="1828" height="392" class="panel"/>
  <text x="60" y="710" class="section">2. PPID Cell 정의에서 Board Local 가공점 생성</text>
  <text x="60" y="736" class="subtitle">최신 버전은 PPID 안의 CellRecipeDefinition을 우선 사용한다. Cell list가 비어 있을 때만 기존 BlockColumns/Rows fallback으로 Cell을 자동 생성한다.</text>

  <rect x="64" y="764" width="430" height="216" class="recipe"/>
  <text x="86" y="794" class="h">2-1. ResolveCellDefinitions(input)</text>
  <text x="86" y="825" class="small">if input.Pp.Cells has valid cells:</text>
  <text x="106" y="848" class="small">CellNumber, AlignToFirstPixelX/Y, RotationDeg 사용</text>
  <text x="86" y="881" class="small">else fallback:</text>
  <text x="106" y="904" class="small">CellBlockColumns/Rows + EffectiveBlockPitch</text>
  <text x="86" y="936" class="tiny">즉, 사용자가 셀 수량을 정하고 각 Cell의 AK1 기준 첫 pixel 위치를 직접 넣는 방식이 최신 컨셉이다.</text>

  <rect x="548" y="764" width="405" height="216" class="calc"/>
  <text x="570" y="794" class="h">2-2. Cell 내부 Pixel 좌표</text>
  <text x="570" y="825" class="small">pixelX = column * CellPitchX + PatternOffsetX</text>
  <text x="570" y="848" class="small">pixelY = row * CellPitchY + PatternOffsetY</text>
  <text x="570" y="881" class="small">cellTheta = cell.RotationDeg * PI / 180</text>
  <text x="570" y="904" class="tiny">Column/Row를 바탕으로 A1, B1, A2 같은 Matrix point를 만든다.</text>

  <rect x="1008" y="764" width="445" height="216" class="calc"/>
  <text x="1030" y="794" class="h">2-3. Cell 회전 및 Align 거리 적용</text>
  <text x="1030" y="825" class="small">localX = cell.AlignToFirstPixelX</text>
  <text x="1030" y="848" class="small">       + cos(cellTheta)*pixelX - sin(cellTheta)*pixelY</text>
  <text x="1030" y="881" class="small">localY = cell.AlignToFirstPixelY</text>
  <text x="1030" y="904" class="small">       + sin(cellTheta)*pixelX + cos(cellTheta)*pixelY</text>
  <text x="1030" y="936" class="tiny">localX/Y는 아직 Stage 좌표가 아니라 AK1 기준 기판 내부 좌표이다.</text>

  <rect x="1508" y="764" width="314" height="216" class="soft"/>
  <text x="1530" y="794" class="h">DataGrid / UI 표현</text>
  <text x="1530" y="825" class="t">Design 2D Matrix: Local/Stage 좌표</text>
  <text x="1530" y="849" class="t">Process 2D Matrix: Gx/Gy 좌표</text>
  <text x="1530" y="873" class="t">Review 2D Matrix: DOE 기준 리뷰 좌표</text>
  <text x="1530" y="897" class="t">DOE 16 Matrix: 4 x 4 beam 선택</text>
  <text x="1530" y="936" class="tiny">행은 1,2,3... 열은 A,B,C... 형태로 표시한다.</text>

  <path class="arrowC" d="M494 872 H548"/>
  <path class="arrowC" d="M953 872 H1008"/>
  <path class="arrow" d="M1453 872 H1508"/>

  <rect x="36" y="1102" width="1828" height="330" class="panel"/>
  <text x="60" y="1136" class="section">3. Board Local에서 DesignStage, ProcessStage 생성</text>
  <text x="60" y="1162" class="subtitle">AK1 Stage Anchor와 기판 전체 Align theta를 적용해 장비 Stage Global 좌표를 만든 뒤, Review 결과 기반 동적 보정값을 더해 ProcessStage를 만든다.</text>

  <rect x="64" y="1192" width="420" height="154" class="stage"/>
  <text x="86" y="1222" class="h">3-1. Board 전체 Align 회전</text>
  <text x="86" y="1252" class="small">theta = ThetaAlignDeg * PI / 180</text>
  <text x="86" y="1275" class="small">R(theta) = [[cos, -sin], [sin, cos]]</text>
  <text x="86" y="1307" class="tiny">Cell 내부 RotationDeg와 별개로 기판 전체가 틀어진 각도이다.</text>

  <rect x="548" y="1192" width="520" height="154" class="stage"/>
  <text x="570" y="1222" class="h">3-2. Design Stage 좌표</text>
  <text x="570" y="1252" class="small">designStageX = ak1GlobalX + cos*localX - sin*localY</text>
  <text x="570" y="1275" class="small">designStageY = ak1GlobalY + sin*localX + cos*localY</text>
  <text x="570" y="1307" class="tiny">Recipe와 Review AK1만 반영된 순수 설계 기반 Stage 가공 목표이다.</text>

  <rect x="1132" y="1192" width="470" height="154" class="calc"/>
  <text x="1154" y="1222" class="h">3-3. Process Stage 좌표</text>
  <text x="1154" y="1252" class="small">processStageX = designStageX + ProcessOffsetGlobalX</text>
  <text x="1154" y="1275" class="small">processStageY = designStageY + ProcessOffsetGlobalY</text>
  <text x="1154" y="1307" class="tiny">가공 후 Review 측정오차를 다음 가공 좌표에 반영하는 동적 보정 지점이다.</text>

  <rect x="64" y="1362" width="1738" height="38" class="soft"/>
  <text x="84" y="1386" class="tiny">DesignStage는 보정 전 기준값, ProcessStage는 실제 가공에 사용할 보정 후 Stage Global 좌표이다. 이후 Scanner 선택, Gx/Gy, Review 좌표는 모두 ProcessStage를 기준으로 계산한다.</text>

  <path class="arrowC" d="M484 1269 H548"/>
  <path class="arrowC" d="M1068 1269 H1132"/>

  <rect x="36" y="1466" width="1828" height="438" class="panel"/>
  <text x="60" y="1500" class="section">4. Scanner 배치 생성과 X Band 기반 Head 선택</text>
  <text x="60" y="1526" class="subtitle">Scanner는 Zigzag로 고정 배치되고, 기판은 Y 방향으로 지나가므로 최신 코드는 X 방향 FieldHalfX만으로 가공 가능 Head를 판단한다.</text>

  <rect x="64" y="1558" width="430" height="166" class="scanner"/>
  <text x="86" y="1587" class="h">4-1. H1 실측 Origin과 설계 Offset 검증</text>
  <text x="86" y="1617" class="small">expectedH1.X = ReviewCenterX + ReviewToFirstScannerOffsetX</text>
  <text x="86" y="1640" class="small">expectedH1.Y = ReviewCenterY + ReviewToFirstScannerOffsetY</text>
  <text x="86" y="1663" class="small">error = FirstScannerInitialStage - expectedH1</text>
  <text x="86" y="1690" class="tiny">Scanner 배치는 FirstScannerInitialStageX/Y에서 시작하고, 별도 offset 값은 검증 기준으로 사용한다.</text>

  <rect x="548" y="1558" width="430" height="166" class="scanner"/>
  <text x="570" y="1587" class="h">4-2. ScannerModel 생성</text>
  <text x="570" y="1617" class="small">CenterX = H1.X + i * ScannerPitchX</text>
  <text x="570" y="1640" class="small">CenterY = H1.Y + (Odd ? 0 : EvenScannerYOffset)</text>
  <text x="570" y="1663" class="small">ReviewOffsetX/Y = ReviewToFirstScannerOffset + pitch/yOffset</text>
  <text x="570" y="1690" class="tiny">H1,H3,H5...는 Odd, H2,H4,H6...는 Even mount이다.</text>

  <rect x="1032" y="1558" width="360" height="166" class="scanner"/>
  <text x="1054" y="1587" class="h">4-3. SelectScanner()</text>
  <text x="1054" y="1617" class="small">dx = processStageX - scanner.CenterX</text>
  <text x="1054" y="1640" class="small">if abs(dx) &lt;= FieldHalfX: inField=true</text>
  <text x="1054" y="1663" class="small">else nearest X scanner 선택</text>
  <text x="1054" y="1690" class="tiny">Y는 Stage 이동으로 커버되므로 X coverage가 핵심이다.</text>

  <rect x="1446" y="1558" width="356" height="166" class="warn"/>
  <text x="1468" y="1587" class="h">중요 개념</text>
  <text x="1468" y="1617" class="t">가공 가능 음영은 Head별 X Field Band이다.</text>
  <text x="1468" y="1641" class="t">Y 방향은 고정 Scanner 위로 기판이 지나가며</text>
  <text x="1468" y="1665" class="t">AUX 또는 Virtual Counter로 타이밍을 맞춘다.</text>
  <text x="1468" y="1690" class="t">따라서 선택 Scanner의 Band 안 Cell만 필터링한다.</text>

  <path class="arrowO" d="M494 1641 H548"/>
  <path class="arrowO" d="M978 1641 H1032"/>
  <path class="arrowO" d="M1392 1641 H1446"/>

  <rect x="80" y="1758" width="980" height="112" class="board"/>
  <circle cx="118" cy="1795" r="8" class="ak"/>
  <text x="132" y="1799" class="tiny">AK1</text>
  <rect x="202" y="1790" width="28" height="20" class="cell"/>
  <rect x="250" y="1790" width="28" height="20" class="cell"/>
  <rect x="298" y="1790" width="28" height="20" class="cell2"/>
  <rect x="346" y="1790" width="28" height="20" class="cell"/>
  <rect x="394" y="1790" width="28" height="20" class="cell"/>
  <rect x="442" y="1790" width="28" height="20" class="cell"/>
  <rect x="490" y="1790" width="28" height="20" class="cell2"/>
  <rect x="538" y="1790" width="28" height="20" class="cell"/>
  <rect x="586" y="1790" width="28" height="20" class="cell"/>
  <rect x="634" y="1790" width="28" height="20" class="cell"/>
  <rect x="682" y="1790" width="28" height="20" class="cell"/>
  <rect x="730" y="1790" width="28" height="20" class="cell2"/>
  <rect x="778" y="1790" width="28" height="20" class="cell"/>
  <rect x="826" y="1790" width="28" height="20" class="cell"/>
  <rect x="874" y="1790" width="28" height="20" class="cell"/>
  <rect x="922" y="1790" width="28" height="20" class="cell"/>
  <rect x="286" y="1758" width="112" height="112" class="band"/>
  <rect x="478" y="1758" width="112" height="112" class="band"/>
  <rect x="718" y="1758" width="112" height="112" class="band"/>
  <text x="306" y="1851" class="tiny">H1 Band</text>
  <text x="498" y="1851" class="tiny">H3 Band</text>
  <text x="738" y="1851" class="tiny">H5 Band</text>

  <rect x="1120" y="1774" width="100" height="64" class="headOdd"/>
  <rect x="1260" y="1818" width="100" height="64" class="headEven"/>
  <rect x="1400" y="1774" width="100" height="64" class="headOdd"/>
  <rect x="1540" y="1818" width="100" height="64" class="headEven"/>
  <text x="1150" y="1810" class="small">H1</text>
  <text x="1290" y="1854" class="small">H2</text>
  <text x="1430" y="1810" class="small">H3</text>
  <text x="1570" y="1854" class="small">H4</text>
  <text x="1120" y="1760" class="tiny">Odd/Even Zigzag fixed scanner array</text>

  <rect x="36" y="1938" width="1828" height="300" class="panel"/>
  <text x="60" y="1972" class="section">5. ProcessStage에서 Scanner 상대좌표와 Gx/Gy command 생성</text>
  <text x="60" y="1998" class="subtitle">최신 코드의 핵심 변환이다. Review camera relative와 physical offset 경로를 계산해 검증하고, 실제 Gx/Gy는 selected scanner center 기준 상대좌표에 Odd/Even 부호 규칙을 적용한다.</text>

  <rect x="64" y="2028" width="395" height="160" class="review"/>
  <text x="86" y="2058" class="h">5-1. Review Camera 상대좌표</text>
  <text x="86" y="2088" class="small">reviewCameraRelativeX = processStageX - ReviewCenterX</text>
  <text x="86" y="2111" class="small">reviewCameraRelativeY = processStageY - ReviewCenterY</text>
  <text x="86" y="2140" class="tiny">Review 중심에서 가공점을 바라본 상대 거리이다.</text>

  <rect x="508" y="2028" width="440" height="160" class="scanner"/>
  <text x="530" y="2058" class="h">5-2. Physical Offset 경로 검증</text>
  <text x="530" y="2088" class="small">scannerRelativeFromPhysicalOffsetX = cameraRelX - selected.ReviewCameraOffsetX</text>
  <text x="530" y="2111" class="small">scannerRelativeFromPhysicalOffsetY = cameraRelY - selected.ReviewCameraOffsetY</text>
  <text x="530" y="2140" class="tiny">Camera -> Scanner 물리 offset으로 환산한 scanner 상대좌표이다.</text>

  <rect x="997" y="2028" width="330" height="160" class="scanner"/>
  <text x="1019" y="2058" class="h">5-3. 실제 Scanner Center 기준</text>
  <text x="1019" y="2088" class="small">relativeX = processStageX - selected.CenterX</text>
  <text x="1019" y="2111" class="small">relativeY = processStageY - selected.CenterY</text>
  <text x="1019" y="2140" class="tiny">physicalTransformError = offset 경로 - center 경로</text>

  <rect x="1376" y="2028" width="426" height="160" class="calc"/>
  <text x="1398" y="2058" class="h">5-4. Gx/Gy 부호 규칙</text>
  <text x="1398" y="2088" class="small">Odd  Head: Gx = -relativeX, Gy = +relativeY</text>
  <text x="1398" y="2111" class="small">Even Head: Gx = +relativeX, Gy = -relativeY</text>
  <text x="1398" y="2140" class="tiny">Zigzag로 뒤집힌 scanner mount 방향을 command 좌표에 반영한다.</text>

  <path class="arrowC" d="M459 2108 H508"/>
  <path class="arrowC" d="M948 2108 H997"/>
  <path class="arrowC" d="M1327 2108 H1376"/>

  <rect x="64" y="2200" width="1738" height="30" class="soft"/>
  <text x="84" y="2220" class="tiny">일반 선형대수 형태로 쓰면 Q_cmd = SignOddEven * (ProcessStage - ScannerCenter) 이며, 현재 샘플은 scale/rotation/shear calibration matrix 없이 mount 부호만 명시적으로 적용한다.</text>

  <rect x="36" y="2272" width="1828" height="196" class="panel"/>
  <text x="60" y="2306" class="section">6. DOE Review 좌표와 Automation1 Script 생성</text>

  <rect x="64" y="2336" width="430" height="96" class="review"/>
  <text x="86" y="2365" class="h">6-1. DOE 4 x 4 Beam Offset</text>
  <text x="86" y="2395" class="small">ScannerOffsetX = (column - 1.5) * DoeBeamPitchX</text>
  <text x="86" y="2418" class="small">ScannerOffsetY = (row - 1.5) * DoeBeamPitchY</text>

  <rect x="548" y="2336" width="480" height="96" class="review"/>
  <text x="570" y="2365" class="h">6-2. Review 좌표 생성</text>
  <text x="570" y="2395" class="small">basisRelative = processStage - selectedReviewScanner.Center</text>
  <text x="570" y="2418" class="small">review = basisRelative + ReviewCameraOffset + ToStageDoeOffset()</text>

  <rect x="1082" y="2336" width="330" height="96" class="calc"/>
  <text x="1104" y="2365" class="h">6-3. MOF 실행 순서</text>
  <text x="1104" y="2395" class="small">OrderBy(LocalY).ThenBy(LocalX)</text>
  <text x="1104" y="2418" class="small">ThenBy(ScannerIndex), MofSequence 부여</text>

  <rect x="1466" y="2336" width="336" height="96" class="script"/>
  <text x="1488" y="2365" class="h">6-4. Script Split</text>
  <text x="1488" y="2395" class="small">H1 -> GX1/GY1 -> Task 1 -> mof_generated_H1</text>
  <text x="1488" y="2418" class="small">H2 -> GX2/GY2 -> Task 2 -> mof_generated_H2</text>

  <path class="arrow" d="M494 2384 H548"/>
  <path class="arrow" d="M1028 2384 H1082"/>
  <path class="arrow" d="M1412 2384 H1466"/>

  <rect x="36" y="2490" width="1828" height="1" fill="#334155"/>

  <rect x="36" y="2500" width="1828" height="0" fill="none"/>

  <rect x="36" y="2468" width="1828" height="0" fill="none"/>

  <rect x="36" y="2466" width="1828" height="0" fill="none"/>

  <rect x="36" y="2464" width="1828" height="0" fill="none"/>

  <rect x="36" y="2462" width="1828" height="0" fill="none"/>

  <rect x="36" y="2460" width="1828" height="0" fill="none"/>

  <rect x="36" y="2472" width="1828" height="0" fill="none"/>

  <rect x="36" y="2474" width="1828" height="0" fill="none"/>

  <rect x="36" y="2476" width="1828" height="0" fill="none"/>

  <rect x="36" y="2478" width="1828" height="0" fill="none"/>

  <rect x="36" y="2480" width="1828" height="0" fill="none"/>

  <rect x="36" y="2482" width="1828" height="0" fill="none"/>

  <rect x="36" y="2484" width="1828" height="0" fill="none"/>

  <rect x="36" y="2486" width="1828" height="0" fill="none"/>

  <rect x="36" y="2488" width="1828" height="0" fill="none"/>

  <text x="60" y="2498" class="tiny">Script Mode: VirtualCounterSimulation은 Stage 축 없이 $rglobal counter와 SimulatedGalvoLaserOutput 사용. ExternalStageAuxMofProgram은 16000 cts/mm AUX feedback, 200 mm follow region, one head per task. HardwareCoordinateProgram은 장비 검증 후 축별 command 직접 실행.</text>
</svg>
